#!OML:ASF Y:\EmotionMaleHayes\Project 1\Capture day 1\Session 1\Male1.ASF
:FULLY-SPECIFIED
:DEGREES
149
root 36.1371 15.6849 -2.97798 -53.5347 84.049 -50.1381
lowerback 16.5923 1.77007 0.953669
upperback 2.77506 2.90721 3.23684
thorax -6.45358 1.50229 2.26364
lowerneck -30.6011 2.41406 3.37131
upperneck 16.0973 2.52901 -2.78281
head 10.1485 1.02596 -1.11491
rclavicle 1.1281e-014 2.10712e-014
rhumerus -55.9465 21.1092 -90.4565
rradius 96.7856
rwrist -22.7173
rhand -30.9692 -34.1742
rfingers 7.12502
rthumb -4.25341 -64.1115
lclavicle 1.1281e-014 2.10712e-014
lhumerus -56.2253 -17.6579 103.032
lradius 92.1152
lwrist 17.7613
lhand -35.277 -26.8445
lfingers 7.12502
lthumb -8.41213 2.96801
rfemur -15.4809 6.93743 34.1042
rtibia 44.8344
rfoot -25.1755 -3.43938
rtoes 13.031
lfemur 6.41087 13.8659 -3.66041
ltibia 78.9097
lfoot 171.33 -20.6201
ltoes -8.21281
150
root 36.5147 15.6867 -2.98682 -57.9375 83.8958 -54.5678
lowerback 16.8973 1.75798 1.37253
upperback 2.80649 2.99177 3.35666
thorax -6.57535 1.53838 2.1275
lowerneck -30.0119 2.3771 3.42868
upperneck 15.3426 2.48757 -2.88428
head 9.78056 1.00535 -1.16742
rclavicle 6.16232e-015 -1.19271e-015
rhumerus -52.6017 21.9183 -89.9012
rradius 96.1603
rwrist -22.3594
rhand -31.4848 -32.6824
rfingers 7.12502
rthumb -4.75125 -62.6091
lclavicle 6.16232e-015 -1.19271e-015
lhumerus -58.194 -16.5191 102.682
lradius 91.6964
lwrist 20.2896
lhand -35.4941 -25.8803
lfingers 7.12502
lthumb -8.62161 3.92362
rfemur -13.9546 6.73932 34.6204
rtibia 45.1251
rfoot -26.7243 -3.63557
rtoes 12.9857
lfemur 2.6709 13.9131 -3.88387
ltibia 76.8676
lfoot 171.309 -17.6219
ltoes -7.96827
151
root 36.9018 15.7111 -3.0102 -60.7921 83.5852 -57.4589
lowerback 17.0945 1.78579 2.06981
upperback 2.86458 3.17115 3.40335
thorax -6.59202 1.61365 1.73731
lowerneck -30.2077 2.27538 3.56522
upperneck 15.4754 2.32682 -3.04758
head 9.85866 0.917195 -1.27466
rclavicle -6.06293e-015 -3.49861e-014
rhumerus -49.3217 22.2069 -89.2338
rradius 95.899
rwrist -21.2571
rhand -30.7837 -32.0611
rfingers 7.12502
rthumb -4.07425 -62.0019
lclavicle -6.06293e-015 -3.49861e-014
lhumerus -60.1279 -15.7022 102.211
lradius 91.4564
lwrist 22.6519
lhand -35.6332 -26.4284
lfingers 7.12502
lthumb -8.75585 3.36997
rfemur -12.1901 6.32469 35.0279
rtibia 44.9896
rfoot -27.9429 -3.37271
rtoes 12.9336
lfemur -0.89395 13.9913 -4.21646
ltibia 75.4568
lfoot 170.655 -15.9889
ltoes -6.33847
152
root 37.3034 15.753 -3.03779 -64.7131 82.8915 -61.5538
lowerback 16.9805 1.75441 3.26351
upperback 2.87736 3.35639 3.51831
thorax -6.46027 1.68398 1.14871
lowerneck -29.9707 2.09021 3.48064
upperneck 15.1542 2.07457 -2.8729
head 9.69231 0.82078 -1.23949
rclavicle 1.48095e-014 2.5842e-014
rhumerus -46.229 21.9355 -88.4887
rradius 95.9046
rwrist -19.2967
rhand -31.1611 -30.326
rfingers 7.12502
rthumb -4.43872 -60.2595
lclavicle 1.48095e-014 2.5842e-014
lhumerus -62.2136 -15.1001 101.763
lradius 91.5594
lwrist 24.8216
lhand -35.7207 -25.7001
lfingers 7.12502
lthumb -8.84033 4.09473
rfemur -10.2247 5.98058 35.8609
rtibia 44.2273
rfoot -28.8493 -2.98275
rtoes 13.1212
lfemur -4.5239 14.0211 -4.11066
ltibia 74.5554
lfoot 170.305 -14.5689
ltoes -5.48926
153
root 37.7097 15.8025 -3.06626 -66.0337 82.8655 -63.167
lowerback 16.7909 1.85782 3.68814
upperback 3.09093 3.54889 3.45325
thorax -6.09852 1.77893 0.808712
lowerneck -31.1105 1.9944 3.54662
upperneck 15.6069 1.93277 -3.06456
head 10.0361 0.727147 -1.34364
rclavicle -1.41137e-014 1.39149e-014
rhumerus -42.9961 21.6815 -87.9128
rradius 96.375
rwrist -19.0443
rhand -32.0246 -29.0921
rfingers 7.12502
rthumb -5.27245 -59.0065
lclavicle -1.41137e-014 1.39149e-014
lhumerus -63.7348 -14.9431 101.345
lradius 91.8316
lwrist 27.1892
lhand -35.7574 -25.1594
lfingers 7.12502
lthumb -8.87569 4.6339
rfemur -8.1587 5.6913 35.8075
rtibia 42.902
rfoot -29.4815 -2.56171
rtoes 14.142
lfemur -8.26138 13.8052 -5.01975
ltibia 74.2732
lfoot 170.392 -14.7839
ltoes -8.21963
154
root 38.1103 15.865 -3.09668 -63.7948 83.2433 -61.3343
lowerback 16.734 2.15825 3.46127
upperback 2.84298 3.89013 3.33849
thorax -6.33689 1.93635 0.738475
lowerneck -31.0323 1.74569 3.38003
upperneck 15.7056 1.70144 -3.19321
head 10.0517 0.59335 -1.40398
rclavicle -4.37326e-015 2.78299e-015
rhumerus -40.8209 20.9432 -87.1654
rradius 96.9327
rwrist -17.1504
rhand -30.3057 -28.8011
rfingers 7.12502
rthumb -3.61271 -58.7502
lclavicle -4.37326e-015 2.78299e-015
lhumerus -66.0545 -14.8156 101.458
lradius 92.2936
lwrist 29.6978
lhand -35.8658 -24.333
lfingers 7.12502
lthumb -8.98034 5.45584
rfemur -6.07293 5.629 35.1258
rtibia 41.2036
rfoot -29.7167 -2.44619
rtoes 13.2648
lfemur -11.9942 13.629 -6.63335
ltibia 74.5064
lfoot 170.353 -14.1692
ltoes -7.66023
155
root 38.5099 15.9489 -3.13572 -66.1889 81.9079 -64.3944
lowerback 16.5717 2.27539 5.08818
upperback 2.45331 4.36592 3.6276
thorax -6.56804 2.12571 0.0328883
lowerneck -31.3288 1.46263 3.39862
upperneck 16.216 1.32981 -3.28864
head 10.2739 0.407709 -1.50995
rclavicle -4.07509e-015 1.82882e-014
rhumerus -39.2862 20.6655 -87.1333
rradius 98.1685
rwrist -17.4344
rhand -30.3234 -27.9985
rfingers 7.12502
rthumb -3.62973 -57.9473
lclavicle -4.07509e-015 1.82882e-014
lhumerus -68.3351 -14.8227 101.557
lradius 92.6455
lwrist 32.1366
lhand -36.0126 -24.0937
lfingers 7.12502
lthumb -9.12194 5.68902
rfemur -4.06668 5.81059 36.5473
rtibia 39.356
rfoot -29.5759 -2.6029
rtoes 10.501
lfemur -15.9378 13.8145 -6.02012
ltibia 74.8477
lfoot 169.821 -13.8797
ltoes -8.9667
156
root 38.9219 16.0319 -3.18667 -67.7875 80.7585 -66.8531
lowerback 15.9636 2.37535 6.749
upperback 1.94075 4.77889 3.805
thorax -6.65681 2.27499 -0.767455
lowerneck -30.755 1.23763 3.0691
upperneck 16.2959 1.08416 -2.88754
head 10.1968 0.328482 -1.35261
rclavicle 1.73937e-014 2.14687e-014
rhumerus -38.0514 19.7318 -86.8403
rradius 99.1666
rwrist -15.8011
rhand -28.6748 -27.4945
rfingers 7.12502
rthumb -2.03762 -57.4646
lclavicle 1.73937e-014 2.14687e-014
lhumerus -70.7759 -14.9587 101.795
lradius 92.8692
lwrist 33.9936
lhand -36.2227 -24.6868
lfingers 7.12502
lthumb -9.32471 5.08695
rfemur -2.1146 5.68658 37.545
rtibia 37.2394
rfoot -29.0386 -1.77763
rtoes 10.4191
lfemur -19.7628 13.7509 -5.6919
ltibia 76.0137
lfoot 169.212 -14.1674
ltoes -9.59277
157
root 39.3599 16.1132 -3.20608 -62.7771 81.1812 -62.1302
lowerback 15.5913 3.02112 6.20589
upperback 1.91431 5.46864 3.55453
thorax -6.46424 2.6212 -0.847859
lowerneck -31.4235 0.775882 2.51174
upperneck 16.7673 0.630475 -2.65414
head 10.4603 0.110246 -1.26226
rclavicle -7.60351e-014 -2.3059e-014
rhumerus -36.5272 18.5255 -86.334
rradius 100.336
rwrist -15.4786
rhand -28.6755 -25.9587
rfingers 7.12502
rthumb -2.03831 -55.9287
lclavicle -7.60351e-014 -2.3059e-014
lhumerus -72.4414 -15.7797 102.124
lradius 92.9342
lwrist 34.9664
lhand -36.4667 -25.027
lfingers 7.12502
lthumb -9.56014 4.73607
rfemur 0.602436 6.02522 36.5768
rtibia 34.884
rfoot -28.2372 -1.22393
rtoes 9.9302
lfemur -22.4344 13.7163 -7.19326
ltibia 78.0123
lfoot 168.495 -15.2252
ltoes -8.32021
158
root 39.8013 16.2087 -3.23443 -58.7107 81.2698 -58.1509
lowerback 15.4134 3.46911 5.96357
upperback 1.689 5.9862 3.3407
thorax -6.58088 2.86235 -1.03631
lowerneck -31.1385 0.414614 2.35646
upperneck 16.9713 0.157032 -2.43171
head 10.4751 -0.0863187 -1.23872
rclavicle 7.83212e-014 2.54444e-014
rhumerus -35.8791 17.9139 -86.508
rradius 101.454
rwrist -15.2463
rhand -29.2211 -23.9618
rfingers 7.12502
rthumb -2.56525 -53.9261
lclavicle 7.83212e-014 2.54444e-014
lhumerus -74.4899 -16.1218 102.177
lradius 93.1335
lwrist 35.1712
lhand -36.6952 -24.6306
lfingers 7.12502
lthumb -9.78061 5.12226
rfemur 3.52133 6.18767 35.8852
rtibia 32.4005
rfoot -26.962 -0.511188
rtoes 10.111
lfemur -24.5874 13.5565 -8.20436
ltibia 81.2241
lfoot 161.671 -38.9055
ltoes -7.91019
